<svg id="Layer_1" data-name="Layer 1" xmlns="http://www.w3.org/2000/svg" viewBox="0 0 163.89 119.67"><title>app-icon</title><path d="M243.19,340.31c-0.78,4.89-.6,17.25-0.61,21.38,0,2.69.87,5.75-1.57,5.93-1.5.11-1.25-1.34-1.38-2.68-0.57-6.15.37-19.58-.83-24.83-0.39-1.71-.63-1.44-0.88,0-0.72,4.23-.62,18.64-0.62,21.58a34.85,34.85,0,0,1,0,4.3c-0.12.84-.32,1.46-1.23,1.57h-0.31c-0.91-.12-1.11-0.73-1.23-1.57a34.85,34.85,0,0,1,0-4.3c0-2.94.1-17.35-.62-21.58-0.25-1.45-.49-1.71-0.88,0-1.2,5.25-.27,18.67-0.83,24.83-0.12,1.34.12,2.79-1.38,2.68-2.44-.17-1.55-3.24-1.57-5.93,0-4.13.17-16.49-.61-21.38-0.32-2-.71-2.14-1.18.17-0.11.56-.18,1.23-0.26,1.79l-1.37,12.17c-0.62,5.21-1.75,10.6-1.73,15.92,0.05,14.24,8.38,11.61,8.85,18,0.49,6.7-3.26,31.61-4,40.6-0.63,7.45-2.28,27.83,7,27.63h0c9.31,0.2,7.66-20.18,7-27.63-0.76-9-4.51-33.9-4-40.6,0.47-6.4,8.8-3.78,8.85-18,0-5.32-1.11-10.71-1.73-15.92l-1.37-12.17c-0.08-.56-0.15-1.23-0.26-1.79-0.47-2.32-.86-2.19-1.18-0.17h0Z" transform="translate(-224 -337)" style="fill:#fff;fill-rule:evenodd"/><path d="M378.06,393.49c-0.69,15.81-4.57,31.24-4.39,47.28,0,3.55.33,8.19,1.56,11.24,1.1,2.71,3.73,5.92,7.54,4.15,10.87-5,1-56.48.83-67.76-0.32-16.8-.28-34.58,0-51.4-4.74-.05-8.41,5.32-9.95,9.11-1.91,4.71-2.78,10.73-3.11,16.27a147.81,147.81,0,0,0,.22,18.88l0.93,11.26c0.37,1.66,1.58,1,6.34,1h0Z" transform="translate(-224 -337)" style="fill:#fff;fill-rule:evenodd"/><path d="M307.29,434.56a37.79,37.79,0,1,1,37.79-37.79,37.79,37.79,0,0,1-37.79,37.79h0Z" transform="translate(-224 -337)" style="fill:#fff;fill-rule:evenodd"/><path d="M307.17,454.78a57.89,57.89,0,1,1,40.93-17,57.71,57.71,0,0,1-40.93,17h0Zm-29.9-28a42.28,42.28,0,1,0-12.38-29.9,42.15,42.15,0,0,0,12.38,29.9h0Z" transform="translate(-224 -337)" style="fill:#fff"/></svg>