<svg id="Layer_1" data-name="Layer 1" xmlns="http://www.w3.org/2000/svg" viewBox="0 0 40.92 30.59"><title>baked</title><path d="M273,1289.91c-2.81-3.71-3.51-4.54-3.86-.85s-4.82,4.47-4.82,4.47a46.07,46.07,0,0,1-5,1.19c-6.32.76-6.15,8-6.15,8-4-2.47,1.76-7.59,1.76-7.59-9,0-13.34,5.94-15.37,10.82h-3.11v-1.59h-1.5v10h39V1303.2h-1.5V1306h-2c-0.19-2.43-.73-5.21-1.05-7.62-0.79-6,2.24-3.63,2.24-3.63s0.46,0.39,2.51,1.8C277.18,1299.26,275.78,1293.63,273,1289.91Z" transform="translate(-234.91 -1283.79)" style="fill:#f5f5f5"/><path d="M251.22,1291.71a3.32,3.32,0,0,1-.31-2,3.42,3.42,0,0,1,.84-1.53,3.45,3.45,0,0,0,1-2.43,2.23,2.23,0,0,0-1.48-2,2.85,2.85,0,0,1,.31,1.93,3.77,3.77,0,0,1-.92,1.52,3.33,3.33,0,0,0-.86,2.49A2.37,2.37,0,0,0,251.22,1291.71Z" transform="translate(-234.91 -1283.79)" style="fill:#f5f5f5"/><path d="M255.05,1292.56a2.53,2.53,0,0,1-.08-1.45,2.85,2.85,0,0,1,.61-1,2.61,2.61,0,0,0,.7-1.91,1.63,1.63,0,0,0-1.24-1.47,2.13,2.13,0,0,1,.07,1.41,3.28,3.28,0,0,1-.68,1,2.52,2.52,0,0,0-.64,2A1.71,1.71,0,0,0,255.05,1292.56Z" transform="translate(-234.91 -1283.79)" style="fill:#f5f5f5"/></svg>