<svg id="Layer_1" data-name="Layer 1" xmlns="http://www.w3.org/2000/svg" viewBox="0 0 41.57 27.35"><title>burger</title><path d="M50.15,978.45H91.72c0,3.63-9.31,8.32-20.79,8.32S50.15,982.08,50.15,978.45Z" transform="translate(-50.15 -959.42)" style="fill:#f5f5f5"/><path d="M91.72,967.73H50.15c0-3.62,9.31-8.31,20.79-8.31S91.72,964.11,91.72,967.73Z" transform="translate(-50.15 -959.42)" style="fill:#f5f5f5"/><path d="M89,969.81h-36a3.27,3.27,0,0,0,0,6.47H89A3.27,3.27,0,0,0,89,969.81Zm-3.3,5.59a4.42,4.42,0,0,1-1,.13,3.72,3.72,0,0,1-3.28-2.11c-0.18-.3-1-0.68-4.7.19l-0.35.08a7.72,7.72,0,0,0-.77.24c-1.32.46-3.54,1.23-5-.42-1-1.16-3.91-.26-4.84.15l-4.91,1.8-0.19-.1a59.38,59.38,0,0,1-5.3-3.1c-1.46-1-3.21,1.17-3.23,1.19l-0.83-.89c0.1-.12,2.4-3,4.64-1.43a56,56,0,0,0,5,2.92l4.48-1.64c0.41-.18,4.28-1.8,6,0.16,1,1.11,2.64.52,3.87,0.1,0.34-.12.64-0.22,0.88-0.27l0.34-.08c2.4-.57,5-1.06,5.85.35a2.64,2.64,0,0,0,3.17,1.44,35.51,35.51,0,0,0,5.11-1.61L91,973.69A35.65,35.65,0,0,1,85.65,975.4Z" transform="translate(-50.15 -959.42)" style="fill:#f5f5f5"/></svg>