<svg id="Layer_1" data-name="Layer 1" xmlns="http://www.w3.org/2000/svg" viewBox="0 0 32.11 34.94"><title>caka</title><path d="M238.85,1428.29v1.5a8.48,8.48,0,0,0,4.81,2.43c1.9,0.15,3.86-.77,5.83-2.74l0.11,0.11,0,0s0.11,0.14.27,0.33l0.58,0.58h0a6.26,6.26,0,0,0,3.65,1.74c1.9,0.15,3.86-.77,5.83-2.74l0.49,0.49h0l0.11,0.14,0.38,0.38,0,0a6.51,6.51,0,0,0,4,2.11,9.49,9.49,0,0,0,6-2.58v-1.73H238.85Z" transform="translate(-238.85 -1413.24)" style="fill:#f5f5f5"/><path d="M264.84,1434a7.87,7.87,0,0,1-4.95-2.57,8.42,8.42,0,0,1-5.34,2.2l-0.55,0a7.68,7.68,0,0,1-4.58-2.19,8.42,8.42,0,0,1-5.35,2.21l-0.55,0a7.77,7.77,0,0,1-4.68-2.29v12.94H271v-12.64a8.55,8.55,0,0,1-5.57,2.39Z" transform="translate(-238.85 -1413.24)" style="fill:#f5f5f5"/><rect y="32.12" width="32.11" height="2.82" style="fill:#f5f5f5"/><path d="M253.67,1427.66h2.47v-9.53l-1-1.09a1.76,1.76,0,0,0-.08-0.17,0.89,0.89,0,0,1,0-1.26l-0.19-.25a1.19,1.19,0,0,0,0,1.67h0l-1.11,1.08v9.53Z" transform="translate(-238.85 -1413.24)" style="fill:#f5f5f5"/><path d="M253.44,1415.42c0.19,0.24.36,0.5,0.52,0.75a2.49,2.49,0,0,1,.21.4,0.32,0.32,0,0,1,0,.4,0.35,0.35,0,0,0,.15-0.42,2.28,2.28,0,0,0-.12-0.47,6.57,6.57,0,0,0-.42-0.85l0,0,0-.07a0.86,0.86,0,0,1,0-.74,2,2,0,0,1,.33-0.62,3.12,3.12,0,0,1,1.26,1.09,2.44,2.44,0,0,1,.26,1.86,2.22,2.22,0,0,0,.07-2,3.24,3.24,0,0,0-1.58-1.43l-0.17-.08-0.11.15a2.9,2.9,0,0,0-.49.94,1.1,1.1,0,0,0,.23,1.12Z" transform="translate(-238.85 -1413.24)" style="fill:#f5f5f5"/></svg>