<svg id="Layer_1" data-name="Layer 1" xmlns="http://www.w3.org/2000/svg" viewBox="0 0 33.1 41.23"><title>chicken</title><path d="M474.23,833.51l-0.13,0a6.43,6.43,0,0,0-4.48-1.06,10.7,10.7,0,0,0,.46-3.13v-4.53a2.16,2.16,0,0,0,.33.18,2.31,2.31,0,0,0,4.29-1.39l-0.33-3.85c-0.11-1.28-.87-9.29-2.14-9.18s-0.85,8.31-.74,9.59h0l-1.86-1.28c-1.32-4-5.43-6.07-10.29-6.07S450.29,814.88,449,819l-1.64,1.13h0c0.11-1.28.54-9.47-.74-9.59s-2,7.91-2.14,9.18l-0.33,3.85a2.31,2.31,0,0,0,4.29,1.39l0.15-.08v4.44a10.71,10.71,0,0,0,.69,3.75,5.93,5.93,0,0,0-4.42.11l-0.23,0c-2.09.68-2.46,5.34-.82,10.42s4.67,8.65,6.75,8,2.44-5.18.89-10.16l0.12,0c1.61,3.84,4.48,6.4,7.76,6.4s5.93-2.35,7.57-5.93c-1.59,4.74-1.35,9,.61,9.77s5.23-2.68,7.09-7.68S476.29,834.27,474.23,833.51Z" transform="translate(-442.79 -810.52)" style="fill:#f5f5f5"/></svg>