<svg id="Layer_1" data-name="Layer 1" xmlns="http://www.w3.org/2000/svg" viewBox="0 0 40.43 35.26"><title>fish</title><path d="M445.85,1361.82c-7,3.09-11.57,9.66-11.57,9.66s3.47,4,6.32,2.94l0.1,0.7a3.21,3.21,0,0,1-1.1.19c-2,0-4-1.63-5.08-2.62,1.5,1.88,5.56,6.49,10.83,9C449.29,1375,446.46,1364,445.85,1361.82Zm-4.27,10.3a1.76,1.76,0,1,1,1.76-1.76A1.76,1.76,0,0,1,441.58,1372.12Z" transform="translate(-434.28 -1348.11)" style="fill:#f5f5f5"/><path d="M468.51,1369.32c-3.08-3.39-9.21-9-16.26-9a15.42,15.42,0,0,0-5.65,1.14c0.6,2,3.64,13.35-.51,20.52a15.7,15.7,0,0,0,6.16,1.34c7.48,0,13.91-6.25,16.78-9.53l5.67,3.24v-10.41Z" transform="translate(-434.28 -1348.11)" style="fill:#f5f5f5"/><path d="M454.55,1352.15c0.35,0.42.73,0.82,1.11,1.21a11.93,11.93,0,0,1,1,1.16,2.7,2.7,0,0,1,.51,1.25,1.9,1.9,0,0,1-.33,1.25,5.35,5.35,0,0,1-1,1.14l0,0.07a3.17,3.17,0,0,0,1.46-.83,2.22,2.22,0,0,0,.68-1.69,2.8,2.8,0,0,0-.76-1.63,4.94,4.94,0,0,0-1.3-1,3.62,3.62,0,0,1-1.17-1,2.23,2.23,0,0,1-.37-1.4,2.76,2.76,0,0,1,.13-0.65,2.88,2.88,0,0,1,.32-0.62,7.24,7.24,0,0,1,1-1.15l0-.07a3,3,0,0,0-1.44.85,2.09,2.09,0,0,0-.61,1.67A3.05,3.05,0,0,0,454.55,1352.15Z" transform="translate(-434.28 -1348.11)" style="fill:#f5f5f5"/><path d="M460.79,1352.15c0.35,0.42.72,0.82,1.11,1.21a11.82,11.82,0,0,1,1,1.16,2.77,2.77,0,0,1,.51,1.25,1.9,1.9,0,0,1-.34,1.25,5.4,5.4,0,0,1-1,1.14l0,0.07a3.14,3.14,0,0,0,1.46-.83,2.2,2.2,0,0,0,.68-1.69,2.82,2.82,0,0,0-.76-1.63,5,5,0,0,0-1.31-1,3.58,3.58,0,0,1-1.17-1,2.2,2.2,0,0,1-.37-1.4,3,3,0,0,1,.13-0.65,2.92,2.92,0,0,1,.32-0.62,7.22,7.22,0,0,1,1-1.15l0-.07a3,3,0,0,0-1.45.85,2.11,2.11,0,0,0-.61,1.67A3,3,0,0,0,460.79,1352.15Z" transform="translate(-434.28 -1348.11)" style="fill:#f5f5f5"/><path d="M447.75,1352.15c0.35,0.42.72,0.82,1.1,1.21a11.89,11.89,0,0,1,1,1.16,2.68,2.68,0,0,1,.51,1.25A1.89,1.89,0,0,1,450,1357a5.32,5.32,0,0,1-1,1.14l0,0.07a3.16,3.16,0,0,0,1.46-.83,2.21,2.21,0,0,0,.69-1.69,2.79,2.79,0,0,0-.76-1.63,5,5,0,0,0-1.3-1,3.6,3.6,0,0,1-1.17-1,2.22,2.22,0,0,1-.37-1.4,2.58,2.58,0,0,1,.13-0.65,2.92,2.92,0,0,1,.32-0.62,7,7,0,0,1,1-1.15l0-.07a2.94,2.94,0,0,0-1.45.85,2.11,2.11,0,0,0-.62,1.67A3,3,0,0,0,447.75,1352.15Z" transform="translate(-434.28 -1348.11)" style="fill:#f5f5f5"/></svg>