<svg id="Layer_1" data-name="Layer 1" xmlns="http://www.w3.org/2000/svg" viewBox="0 0 36.62 50.5"><title>icecream</title><rect x="515.82" y="1049.4" width="3.8" height="4.05" transform="translate(-1092.8 -352.87) rotate(-45.01)" style="fill:#f5f5f5"/><rect x="512.18" y="1053.31" width="3.27" height="4.05" transform="translate(-1096.65 -354.67) rotate(-45)" style="fill:#f5f5f5"/><rect x="516.18" y="1057.69" width="3.27" height="3.27" transform="translate(-1098.15 -351.14) rotate(-44.98)" style="fill:#f5f5f5"/><rect x="519.82" y="1053.78" width="3.8" height="3.27" transform="translate(-1094.12 -349.86) rotate(-44.96)" style="fill:#f5f5f5"/><rect x="523.88" y="1049.6" width="4.05" height="3.27" transform="translate(-1090.15 -347.52) rotate(-44.99)" style="fill:#f5f5f5"/><rect x="524.64" y="1054.24" width="1.99" height="1.99" transform="translate(-1092.99 -346.74) rotate(-44.98)" style="fill:#f5f5f5"/><rect x="520.54" y="1058.33" width="1.99" height="1.99" transform="translate(-1096.55 -349.99) rotate(-44.9)" style="fill:#f5f5f5"/><polygon points="15.49 35.96 16.9 37.37 18.31 35.96 16.9 34.55 15.49 35.96" style="fill:#f5f5f5"/><rect x="520.91" y="1050.51" width="1.99" height="1.99" transform="translate(-1092.09 -348.53) rotate(-45.08)" style="fill:#f5f5f5"/><rect x="516.81" y="1054.61" width="1.99" height="1.99" transform="translate(-1096.08 -350.58) rotate(-45.06)" style="fill:#f5f5f5"/><rect x="513.09" y="1058.33" width="1.99" height="1.99" transform="translate(-1099.38 -353.35) rotate(-45)" style="fill:#f5f5f5"/><rect x="512.54" y="1050.34" width="1.99" height="1.99" transform="translate(-1093.77 -356.43) rotate(-44.98)" style="fill:#f5f5f5"/><path d="M519,1077.6l16.52-33.11h-33.4Zm-9.83-31.45-1.09,1.09,1.41,1.41,1.41-1.41-1.09-1.09h2.18l-1.09,1.09,2.69,2.69,2.69-2.69-1.09-1.09h2.18l-1.09,1.09,1.41,1.41,1.41-1.41-1.09-1.09h2.18l-1.09,1.09,2.86,2.86,2.86-2.86-1.09-1.09h2.18l-1.09,1.09,1.41,1.41,1.41-1.41-1.09-1.09h2.18l-1.09,1.09,2.31,2.31,2.25-2.25-1.15-1.15h1.8l-0.51,1-0.13.13,0,0-1.5,3-0.8-.8L528.5,1051l1.27,1.27-0.28.56-2.44,2.44,0.82,0.81-0.94,1.88-1.29-1.29-2.69,2.69,2.18,2.19-0.94,1.88-2.66-2.65-2.31,2.31,2.69,2.69,2.21-2.21-1.48,3-0.74-.74-1.41,1.41,1.21,1.21-0.4.79-2.27,2.27,0.76,0.76-0.87,1.74-0.81-1.58,0.92-.92-1.41-1.41-0.46.46-1-1.88,1.42,1.42,2.86-2.86-2.69-2.69-2.45,2.45-1-1.86,2-2-2.31-2.31-1.24,1.24-0.95-1.87,0.78-.79-2.42-2.42-0.3-.59,1.27-1.27-1.41-1.41-0.81.81-1.68-3.3,2.49,2.49,2.32-2.31-2.69-2.69-2.25,2.25-1-1.87,1.79-1.79-1.09-1.09h2.18Z" transform="translate(-500.91 -1027.09)" style="fill:#f5f5f5"/><path d="M535.11,1036.13a7.83,7.83,0,0,0-7.77-9,7.8,7.8,0,0,0-4.86,1.69,7.86,7.86,0,0,0-12.67,5.21,7.72,7.72,0,0,0-1-.07,7.84,7.84,0,0,0-7.73,9.31h36.34A7.81,7.81,0,0,0,535.11,1036.13Z" transform="translate(-500.91 -1027.09)" style="fill:#f5f5f5"/></svg>