<svg id="Layer_1" data-name="Layer 1" xmlns="http://www.w3.org/2000/svg" viewBox="0 0 38.45 38.44"><title>lemon</title><path d="M135.16,518.1a19.22,19.22,0,1,0,19.22,19.22A19.25,19.25,0,0,0,135.16,518.1Zm0,37.15a17.92,17.92,0,1,1,17.92-17.92A17.94,17.94,0,0,1,135.16,555.25Z" transform="translate(-115.93 -518.1)" style="fill:#f5f5f5"/><path d="M135.31,537.24c4.1-3.27,10.82-11.4,10.82-11.4l-3.05-2.27s-5.83,8.72-7.82,13.64l0,0.1Z" transform="translate(-115.93 -518.1)" style="fill:#f5f5f5"/><path d="M135.27,537.19l0,0.11,0-.09v0Z" transform="translate(-115.93 -518.1)" style="fill:#f5f5f5"/><path d="M135.13,537.23c-3.27-4.09-11.4-10.82-11.4-10.82l-2.27,3s8.72,5.83,13.64,7.82l0.1,0Z" transform="translate(-115.93 -518.1)" style="fill:#f5f5f5"/><path d="M135.08,537.27l0.11,0-0.09,0h0Z" transform="translate(-115.93 -518.1)" style="fill:#f5f5f5"/><path d="M148.89,529.34s-9.5,4.71-13.64,8c5.21-.77,15.17-4.46,15.17-4.46Z" transform="translate(-115.93 -518.1)" style="fill:#f5f5f5"/><path d="M127.23,523.64s4.71,9.5,8,13.64c-0.76-5.21-4.46-15.17-4.46-15.17Z" transform="translate(-115.93 -518.1)" style="fill:#f5f5f5"/><path d="M135.22,537.3v-0.12l0,0.11c1.94-4.9,3.71-15.37,3.71-15.37a27.93,27.93,0,0,0-3.71-.46h-0.07s-0.69,10.6.06,15.82h0Z" transform="translate(-115.93 -518.1)" style="fill:#f5f5f5"/><path d="M135.19,537.32l-0.12,0,0.11,0c-4.9-1.94-15.36-3.71-15.36-3.71a27.94,27.94,0,0,0-.46,3.72s0,0.07,0,.07,10.6,0.69,15.82-.06h0Z" transform="translate(-115.93 -518.1)" style="fill:#f5f5f5"/><path d="M135.24,537.33l0.12,0-0.11,0c4.9,1.94,15.37,3.71,15.37,3.71l0.46-3.71s0,0,0-.07a57.64,57.64,0,0,0-15.83.06h0Z" transform="translate(-115.93 -518.1)" style="fill:#f5f5f5"/><path d="M121.54,545.31s9.5-4.71,13.64-8C130,538.11,120,541.8,120,541.8Z" transform="translate(-115.93 -518.1)" style="fill:#f5f5f5"/><path d="M143.2,551s-4.71-9.5-8-13.64c0.77,5.21,4.46,15.17,4.46,15.17Z" transform="translate(-115.93 -518.1)" style="fill:#f5f5f5"/><path d="M135.3,537.42c3.27,4.09,11.39,10.82,11.39,10.82l2.28-3s-8.72-5.83-13.64-7.82l-0.1,0Z" transform="translate(-115.93 -518.1)" style="fill:#f5f5f5"/><path d="M135.35,537.38l-0.11,0,0.09,0h0Z" transform="translate(-115.93 -518.1)" style="fill:#f5f5f5"/><path d="M135.16,537.45l0-.11,0,0.09v0Z" transform="translate(-115.93 -518.1)" style="fill:#f5f5f5"/><path d="M135.12,537.41c-4.09,3.27-10.82,11.4-10.82,11.4l3,2.27s5.83-8.72,7.82-13.64l0-.09Z" transform="translate(-115.93 -518.1)" style="fill:#f5f5f5"/><path d="M135.21,537.35v0.12l0-.11c-1.94,4.9-3.71,15.37-3.71,15.37a28.09,28.09,0,0,0,3.72.45h0.07s0.69-10.6-.06-15.82h0Z" transform="translate(-115.93 -518.1)" style="fill:#f5f5f5"/><polygon points="19.28 19.22 19.27 19.21 19.27 19.22 19.27 19.22 19.27 19.22 19.28 19.22" style="fill:#f5f5f5"/><polygon points="19.3 19.23 19.29 19.22 19.29 19.22 19.3 19.23" style="fill:#f5f5f5"/><path d="M135.22,537.35h0v0h0Z" transform="translate(-115.93 -518.1)" style="fill:#f5f5f5"/><polygon points="19.27 19.22 19.27 19.23 19.28 19.23 19.27 19.22" style="fill:#f5f5f5"/><polygon points="19.29 19.21 19.29 19.21 19.29 19.21 19.29 19.21" style="fill:#f5f5f5"/><polygon points="19.29 19.22 19.29 19.22 19.29 19.21 19.29 19.21 19.29 19.21 19.29 19.22" style="fill:#f5f5f5"/><path d="M135.24,537.33h0Z" transform="translate(-115.93 -518.1)" style="fill:#f5f5f5"/><circle cx="135.22" cy="537.33" transform="translate(-513.24 -133.82) rotate(-59.84)" style="fill:#f5f5f5"/><polygon points="19.28 19.24 19.28 19.23 19.28 19.23 19.28 19.24" style="fill:#f5f5f5"/><path d="M135.19,537.34h0Z" transform="translate(-115.93 -518.1)" style="fill:#f5f5f5"/><polygon points="19.29 19.23 19.29 19.23 19.29 19.23 19.29 19.23" style="fill:#f5f5f5"/><polygon points="19.28 19.22 19.28 19.21 19.28 19.22 19.28 19.22" style="fill:#f5f5f5"/><path d="M135.23,537.34l0.08,0.09h0l-0.07-.08h0Z" transform="translate(-115.93 -518.1)" style="fill:#f5f5f5"/><path d="M135.2,537.3l-0.08-.09h0l0.07,0.08h0Z" transform="translate(-115.93 -518.1)" style="fill:#f5f5f5"/><polygon points="19.29 19.23 19.3 19.24 19.3 19.23 19.3 19.23 19.3 19.23 19.3 19.23 19.29 19.23" style="fill:#f5f5f5"/><polygon points="19.28 19.21 19.28 19.22 19.28 19.22 19.28 19.21" style="fill:#f5f5f5"/><circle cx="19.28" cy="19.22" style="fill:#f5f5f5"/><polygon points="19.29 19.23 19.29 19.23 19.29 19.23 19.29 19.23" style="fill:#f5f5f5"/><polygon points="19.29 19.23 19.29 19.23 19.29 19.23 19.29 19.23" style="fill:#f5f5f5"/><polygon points="19.29 19.23 19.29 19.23 19.29 19.23 19.29 19.23 19.29 19.23 19.29 19.23" style="fill:#f5f5f5"/><polygon points="19.29 19.23 19.29 19.23 19.29 19.23 19.29 19.23" style="fill:#f5f5f5"/><circle cx="135.23" cy="537.33" transform="translate(-357.15 -387.34) rotate(-28.67)" style="fill:#f5f5f5"/><path d="M135.2,537.31h0Z" transform="translate(-115.93 -518.1)" style="fill:#f5f5f5"/><polygon points="19.28 19.24 19.28 19.24 19.27 19.24 19.27 19.25 19.27 19.25 19.28 19.25 19.28 19.24" style="fill:#f5f5f5"/><circle cx="135.21" cy="537.33" transform="translate(-470.86 -239.18) rotate(-48.08)" style="fill:#f5f5f5"/><polygon points="19.27 19.22 19.27 19.22 19.27 19.22 19.27 19.22" style="fill:#f5f5f5"/><polygon points="19.27 19.22 19.27 19.22 19.27 19.22 19.27 19.22" style="fill:#f5f5f5"/><path d="M135.2,537.3h0v0h0A0,0,0,0,1,135.2,537.3Z" transform="translate(-115.93 -518.1)" style="fill:#f5f5f5"/><path d="M135.22,537.31h0Z" transform="translate(-115.93 -518.1)" style="fill:#f5f5f5"/><polygon points="19.27 19.23 19.27 19.23 19.27 19.23 19.27 19.23" style="fill:#f5f5f5"/><polygon points="19.28 19.22 19.28 19.22 19.28 19.22 19.28 19.23 19.28 19.23 19.28 19.22 19.28 19.22" style="fill:#f5f5f5"/><polygon points="19.28 19.22 19.29 19.22 19.28 19.22 19.28 19.22 19.28 19.22 19.28 19.22 19.28 19.22" style="fill:#f5f5f5"/><polygon points="19.28 19.23 19.28 19.23 19.28 19.23 19.28 19.23" style="fill:#f5f5f5"/><polygon points="19.28 19.23 19.28 19.23 19.29 19.23 19.28 19.23" style="fill:#f5f5f5"/><circle cx="135.22" cy="537.32" transform="translate(-421.12 -316.98) rotate(-38.52)" style="fill:#f5f5f5"/><polygon points="19.29 19.22 19.29 19.22 19.29 19.22 19.29 19.22" style="fill:#f5f5f5"/><path d="M135.23,537.31l0.09-.08h0l-0.08.07h0Z" transform="translate(-115.93 -518.1)" style="fill:#f5f5f5"/><path d="M135.19,537.34l-0.09.08h0l0.08-.07h0Z" transform="translate(-115.93 -518.1)" style="fill:#f5f5f5"/><polygon points="19.29 19.22 19.29 19.21 19.29 19.22 19.29 19.22" style="fill:#f5f5f5"/><polygon points="19.27 19.23 19.26 19.24 19.27 19.24 19.27 19.24 19.27 19.24 19.27 19.24 19.27 19.23" style="fill:#f5f5f5"/><polygon points="19.28 19.23 19.28 19.23 19.28 19.23 19.28 19.23" style="fill:#f5f5f5"/><polygon points="19.28 19.22 19.28 19.22 19.28 19.23 19.28 19.23 19.29 19.23 19.28 19.22" style="fill:#f5f5f5"/><polygon points="19.29 19.22 19.29 19.22 19.29 19.22 19.29 19.22" style="fill:#f5f5f5"/><polygon points="19.29 19.23 19.29 19.22 19.29 19.22 19.29 19.23" style="fill:#f5f5f5"/><polygon points="19.28 19.22 19.28 19.22 19.29 19.23 19.29 19.22 19.29 19.22 19.29 19.22 19.28 19.22" style="fill:#f5f5f5"/><circle cx="19.29" cy="19.22" style="fill:#f5f5f5"/><rect x="19.28" y="19.23" style="fill:#f5f5f5"/><polygon points="19.27 19.23 19.27 19.23 19.27 19.23 19.27 19.23" style="fill:#f5f5f5"/><polygon points="19.27 19.23 19.27 19.23 19.27 19.23 19.27 19.23" style="fill:#f5f5f5"/><polygon points="19.28 19.23 19.27 19.23 19.27 19.23 19.28 19.23 19.28 19.23 19.28 19.23" style="fill:#f5f5f5"/><rect x="19.28" y="19.23" style="fill:#f5f5f5"/><polygon points="19.28 19.23 19.28 19.23 19.28 19.22 19.28 19.23" style="fill:#f5f5f5"/><circle cx="19.28" cy="19.22" style="fill:#f5f5f5"/><polygon points="19.27 19.23 19.27 19.23 19.27 19.23 19.27 19.23" style="fill:#f5f5f5"/><circle cx="135.21" cy="537.33" transform="translate(-404.94 -337.21) rotate(-35.84)" style="fill:#f5f5f5"/><polygon points="19.27 19.21 19.27 19.21 19.27 19.21 19.27 19.21" style="fill:#f5f5f5"/><polygon points="19.29 19.21 19.3 19.21 19.29 19.21 19.29 19.2 19.29 19.21 19.29 19.21 19.29 19.21" style="fill:#f5f5f5"/><circle cx="135.22" cy="537.31" transform="translate(-283.7 -444.67) rotate(-19.03)" style="fill:#f5f5f5"/><path d="M135.2,537.32h0Z" transform="translate(-115.93 -518.1)" style="fill:#f5f5f5"/><circle cx="135.21" cy="537.31" transform="translate(-438.31 -293.2) rotate(-41.55)" style="fill:#f5f5f5"/><polygon points="19.28 19.21 19.27 19.21 19.27 19.21 19.28 19.21" style="fill:#f5f5f5"/><circle cx="135.2" cy="537.32" transform="translate(-281.28 -446.25) rotate(-18.73)" style="fill:#f5f5f5"/><polygon points="19.27 19.21 19.27 19.21 19.27 19.21 19.27 19.21" style="fill:#f5f5f5"/><polygon points="19.29 19.21 19.28 19.21 19.28 19.21 19.29 19.21" style="fill:#f5f5f5"/><polygon points="19.28 19.21 19.28 19.21 19.29 19.21 19.28 19.21" style="fill:#f5f5f5"/><path d="M135.24,537.31h0Z" transform="translate(-115.93 -518.1)" style="fill:#f5f5f5"/><polygon points="19.29 19.21 19.29 19.21 19.29 19.21 19.29 19.21" style="fill:#f5f5f5"/></svg>