<svg id="Layer_1" data-name="Layer 1" xmlns="http://www.w3.org/2000/svg" viewBox="0 0 41.43 37.42"><title>noodles</title><path d="M80.53,1297.25c0,7.19-8.19,13-18.3,13s-18.29-5.82-18.29-13" transform="translate(-39.1 -1274.28)" style="fill:#f5f5f5"/><rect x="4.9" y="17.6" width="36.53" height="4.83" style="fill:#f5f5f5"/><rect x="18.46" y="35.63" width="9.41" height="1.8" style="fill:#f5f5f5"/><rect x="50.73" y="1273.17" width="1.21" height="24.65" transform="translate(-626.14 -1105.75) rotate(-27.46)" style="fill:#f5f5f5"/><rect x="47.26" y="1273.17" width="1.21" height="24.66" transform="translate(-893.65 -905.55) rotate(-42.42)" style="fill:#f5f5f5"/><path d="M61.5,1296.16H61.4a1.81,1.81,0,0,1-1.28-1.18,2.91,2.91,0,0,1-2.32.54l0.09-.91a1.86,1.86,0,0,0,1.72-.44,0.93,0.93,0,0,0,.1-0.26,4,4,0,0,1-.19-1.45,16.21,16.21,0,0,0-1.94-3.57l-0.08-.12a2,2,0,0,1,.08-2.42c0.71-.56,1.78,0,3.17,1.52,1.58,1.77,1.13,2.53.38,3.34a2.18,2.18,0,0,0-.68,1.15,4,4,0,0,1,.2,1.48,4.78,4.78,0,0,0,.17.46,1.36,1.36,0,0,0,.67,1c0.41,0,1.26-1.25,1.95-2.3l0.07-.1a7.09,7.09,0,0,1-.77-1,6.57,6.57,0,0,0-.73,2.64l-0.91,0a6.82,6.82,0,0,1,1.17-3.51,4,4,0,0,1-.28-1.14,2.29,2.29,0,0,1,2.13-2.55,3.5,3.5,0,0,1,3.15,1.05,9.39,9.39,0,0,1,1.53-1.05c2.41-1.3,3.5-1.59,4-1s-0.05,1.89-1.67,4.59a2.06,2.06,0,0,1-1.44,1.19h0c-0.73,0-1.24-.72-1.83-1.55-0.2-.28-0.4-0.57-0.62-0.85-0.27.27-.54,0.56-0.8,0.86,1.88,0.78,4.15,2.16,3.94,3.4-0.18,1.09-1.91,1.09-2.47,1.09a5.88,5.88,0,0,1-3.67-1.45C63.11,1295.08,62.39,1296.16,61.5,1296.16Zm3.18-3.44a4.93,4.93,0,0,0,3.17,1.29c1.25,0,1.56-.26,1.58-0.33,0.06-.38-1.3-1.61-3.64-2.51C65.39,1291.69,65,1292.22,64.68,1292.72Zm-1.31-1.59a5.89,5.89,0,0,0,.66.93c0.26-.39.54-0.78,0.84-1.18a1.84,1.84,0,0,0-1.47.23ZM58.2,1287l-0.07,0a1.23,1.23,0,0,0,.12,1.2l0.08,0.12a22.25,22.25,0,0,1,1.64,2.78,5,5,0,0,1,.48-0.58c0.52-.56.76-0.81-0.4-2.1S58.4,1287,58.2,1287Zm9.67,1.94c0.25,0.31.48,0.63,0.69,0.93a3,3,0,0,0,1.08,1.16,1.18,1.18,0,0,0,.69-0.73c0.8-1.33,1.88-3.14,1.78-3.54a10.85,10.85,0,0,0-2.89,1.26A8.41,8.41,0,0,0,67.86,1289Zm-3.15-.86a2.77,2.77,0,0,0-.46,0,1.38,1.38,0,0,0-1.37,1.57,2.88,2.88,0,0,0,.11.56,2.93,2.93,0,0,1,2.49-.18,15.39,15.39,0,0,1,1.09-1.19A2.66,2.66,0,0,0,64.72,1288.11Z" transform="translate(-39.1 -1274.28)" style="fill:#f5f5f5"/></svg>