<svg id="Layer_1" data-name="Layer 1" xmlns="http://www.w3.org/2000/svg" viewBox="0 0 44.66 46.11"><title>ananas</title><polygon points="3.46 33.25 3.46 37.59 7.21 37.56 7.21 33.21 3.46 33.25" style="fill:#f5f5f5"/><polygon points="7.21 26.9 3.46 26.93 3.46 31.61 7.21 31.58 7.21 26.9" style="fill:#f5f5f5"/><polygon points="7.21 21.86 6.83 21.87 3.46 25.24 3.46 25.29 7.21 25.26 7.21 21.86" style="fill:#f5f5f5"/><polygon points="7.21 39.2 3.46 39.23 3.46 41.48 4.7 42.71 7.21 42.69 7.21 39.2" style="fill:#f5f5f5"/><polygon points="20.19 37.45 24.54 37.42 24.54 33.07 20.19 33.11 20.19 37.45" style="fill:#f5f5f5"/><polygon points="24.54 20.09 24.54 16.34 20.19 16.38 20.19 20.12 24.54 20.09" style="fill:#f5f5f5"/><polygon points="20.19 26.79 20.19 31.47 24.54 31.44 24.54 26.76 20.19 26.79" style="fill:#f5f5f5"/><polygon points="20.19 42.58 20.98 42.58 24.5 39.06 20.19 39.09 20.19 42.58" style="fill:#f5f5f5"/><polygon points="24.54 21.72 20.19 21.76 20.19 25.15 24.54 25.12 24.54 21.72" style="fill:#f5f5f5"/><path d="M196.65,447.78a11.27,11.27,0,0,0-4.35-.72V449l4.35,0v-1.19Z" transform="translate(-172.11 -434.26)" style="fill:#f5f5f5"/><polygon points="29.67 25.08 29.67 21.68 26.18 21.71 26.18 25.1 29.67 25.08" style="fill:#f5f5f5"/><polygon points="26.18 26.74 26.18 31.42 29.67 31.39 29.67 26.71 26.18 26.74" style="fill:#f5f5f5"/><polygon points="26.18 37.38 29.67 33.89 29.67 33.03 26.18 33.06 26.18 37.38" style="fill:#f5f5f5"/><polygon points="26.18 20.07 29.67 20.04 29.67 17.23 28.74 16.31 26.18 16.33 26.18 20.07" style="fill:#f5f5f5"/><path d="M198.28,448.56V449h0.59C198.67,448.82,198.48,448.68,198.28,448.56Z" transform="translate(-172.11 -434.26)" style="fill:#f5f5f5"/><polygon points="13.87 39.14 13.87 42.64 18.55 42.6 18.55 39.1 13.87 39.14" style="fill:#f5f5f5"/><polygon points="13.87 37.51 18.55 37.47 18.55 33.12 13.87 33.16 13.87 37.51" style="fill:#f5f5f5"/><polygon points="18.55 25.17 18.55 21.77 13.87 21.81 13.87 25.2 18.55 25.17" style="fill:#f5f5f5"/><path d="M186,478.54v1.8a11.2,11.2,0,0,0,4.68-1.56V478.5Z" transform="translate(-172.11 -434.26)" style="fill:#f5f5f5"/><polygon points="13.87 31.52 18.55 31.48 18.55 26.8 13.87 26.84 13.87 31.52" style="fill:#f5f5f5"/><path d="M190.66,447.24a11.15,11.15,0,0,0-4.34,1.82l4.34,0v-1.78Z" transform="translate(-172.11 -434.26)" style="fill:#f5f5f5"/><polygon points="18.55 16.39 13.87 16.43 13.87 20.17 18.55 20.14 18.55 16.39" style="fill:#f5f5f5"/><path d="M203.41,459.33l2,0a11.26,11.26,0,0,0-.69-3.39h-1.32v3.39Z" transform="translate(-172.11 -434.26)" style="fill:#f5f5f5"/><path d="M203.41,453.39v0.9H204C203.8,454,203.62,453.68,203.41,453.39Z" transform="translate(-172.11 -434.26)" style="fill:#f5f5f5"/><path d="M203.41,465.64h0.4a11.17,11.17,0,0,0,1.57-4.69l-2,0v4.68Z" transform="translate(-172.11 -434.26)" style="fill:#f5f5f5"/><path d="M173.93,461.48a11.14,11.14,0,0,0-1.69,4.42l1.69,0v-4.41Z" transform="translate(-172.11 -434.26)" style="fill:#f5f5f5"/><path d="M173.93,467.52h-1.82a11.21,11.21,0,0,0,.84,4.34h1v-4.34Z" transform="translate(-172.11 -434.26)" style="fill:#f5f5f5"/><path d="M173.93,473.77v-0.26h-0.16Z" transform="translate(-172.11 -434.26)" style="fill:#f5f5f5"/><polygon points="8.84 39.18 8.84 42.68 12.24 42.65 12.24 39.16 8.84 39.18" style="fill:#f5f5f5"/><path d="M181,479.68a11.21,11.21,0,0,0,3.39.69v-1.82l-3.39,0v1.1Z" transform="translate(-172.11 -434.26)" style="fill:#f5f5f5"/><polygon points="12.24 26.86 8.84 26.88 8.84 31.56 12.24 31.54 12.24 26.86" style="fill:#f5f5f5"/><polygon points="12.24 33.17 8.84 33.2 8.84 37.55 12.24 37.52 12.24 33.17" style="fill:#f5f5f5"/><polygon points="12.24 25.22 12.24 21.82 8.84 21.85 8.84 25.25 12.24 25.22" style="fill:#f5f5f5"/><polygon points="12.24 16.46 8.84 19.86 8.84 20.21 12.24 20.19 12.24 16.46" style="fill:#f5f5f5"/><path d="M209.28,451.13a17.1,17.1,0,0,0,3.75-.4,11.89,11.89,0,0,0,3.75-1.47,11.88,11.88,0,0,0-3.75-1.47,17.27,17.27,0,0,0-3.75-.4,17.53,17.53,0,0,0-3.75.41l-0.55.14,0.49-.29a17.52,17.52,0,0,0,2.94-2.36,17.25,17.25,0,0,0,2.37-2.93,11.88,11.88,0,0,0,1.61-3.69,11.9,11.9,0,0,0-3.69,1.61,17.16,17.16,0,0,0-2.93,2.37,17.54,17.54,0,0,0-2.36,2.94c-0.1.16-.19,0.33-0.29,0.49,0-.18.1-0.37,0.14-0.55a17.67,17.67,0,0,0,.41-3.75,17.19,17.19,0,0,0-.4-3.75,11.83,11.83,0,0,0-1.47-3.75,11.89,11.89,0,0,0-1.47,3.75,17.13,17.13,0,0,0-.4,3.75,17.66,17.66,0,0,0,.4,3.75c0,0.18.09,0.37,0.14,0.55-0.09-.16-0.19-0.33-0.29-0.49a17.52,17.52,0,0,0-2.36-2.94,17.16,17.16,0,0,0-2.93-2.37,11.88,11.88,0,0,0-3.69-1.61,11.9,11.9,0,0,0,1.61,3.69,17.3,17.3,0,0,0,2.37,2.93,17.53,17.53,0,0,0,2.94,2.36,12,12,0,0,0,3.69,1.61c0.22,0.14.44,0.25,0.66,0.36h0A11.89,11.89,0,0,0,204,453.3a17.31,17.31,0,0,0,2.37,2.93,17.52,17.52,0,0,0,2.94,2.36,12,12,0,0,0,3.69,1.61,12,12,0,0,0-1.61-3.69,17.63,17.63,0,0,0-2.36-2.94,17.25,17.25,0,0,0-2.93-2.37c-0.36-.23-0.74-0.44-1.12-0.64l0.56,0.15A17.58,17.58,0,0,0,209.28,451.13Z" transform="translate(-172.11 -434.26)" style="fill:#f5f5f5"/></svg>