<svg id="Layer_1" data-name="Layer 1" xmlns="http://www.w3.org/2000/svg" viewBox="0 0 40.49 40.73"><title>apple</title><path d="M139,447.73a9.24,9.24,0,0,0-5.89,1.84,1.93,1.93,0,0,0-1-1.25c-0.09-.45-0.18-0.88-0.27-1.29a11.32,11.32,0,0,0,4.22.57,12.9,12.9,0,0,0,4.14-.92,12.66,12.66,0,0,0,3.6-2.23,11.11,11.11,0,0,0,2.9-4,11.11,11.11,0,0,0-4.84-.8,12.7,12.7,0,0,0-4.13.93,12.88,12.88,0,0,0-3.61,2.23,11.38,11.38,0,0,0-2.52,3.17c-1.48-6.25-2.9-7.47-3.74-7.52l-0.1,1.63a0.5,0.5,0,0,1-.21,0c0.07,0,1.32.87,2.78,7.73a12.94,12.94,0,0,0-1.56-.08c-9.26,0-16.77,7-16.77,15.75s7.51,15.75,16.77,15.75c3.21,0,4.32-.85,4.41-2.32a8,8,0,0,0,5.82,2.32c7.45,0,13.49-7,13.49-15.75S146.47,447.73,139,447.73Z" transform="translate(-112.02 -438.5)" style="fill:#f5f5f5"/></svg>