<svg id="Layer_1" data-name="Layer 1" xmlns="http://www.w3.org/2000/svg" viewBox="0 0 34.25 42"><title>grapes</title><path d="M280.28,452.79a3.35,3.35,0,0,0-3.95-3.37,3.42,3.42,0,1,0-6.34-1.87,3.42,3.42,0,0,0-6.85.11,3.43,3.43,0,1,0-6.86,0,3.43,3.43,0,1,0-6.36,1.76,3.66,3.66,0,0,0-.47,0,3.43,3.43,0,1,0,0,6.86,3.34,3.34,0,0,0,.77-0.1,3.4,3.4,0,0,0,3.64,5.42,3.42,3.42,0,0,0,3.73,5.57,3.4,3.4,0,0,0,3.12,5.92,3.43,3.43,0,1,0,4.91,0,3.41,3.41,0,0,0,3.12-5.92,3.42,3.42,0,0,0,3.75-5.54,3.41,3.41,0,0,0,3.57-5.44,3.34,3.34,0,0,0,.77.1A3.43,3.43,0,0,0,280.28,452.79Zm-8.94-4.52a2.83,2.83,0,0,0,1.85.82,2.14,2.14,0,0,0,1.83-.92l0.33,0.18c-0.68.94-1.22,1.64-2.07,1.66h-0.05a2.88,2.88,0,0,1-2.19-1.56Zm-1,5.37a2.83,2.83,0,0,0,1.85.82,2.13,2.13,0,0,0,1.83-.92l0.33,0.18c-0.67.94-1.22,1.64-2.07,1.66h-0.05a2.88,2.88,0,0,1-2.19-1.56Zm-5.68-5a2.82,2.82,0,0,0,1.85.82,2.14,2.14,0,0,0,1.83-.92l0.33,0.18c-0.67.94-1.22,1.64-2.07,1.66h-0.05a2.88,2.88,0,0,1-2.19-1.56Zm0,5a2.83,2.83,0,0,0,1.85.82,2.14,2.14,0,0,0,1.83-.92l0.33,0.18c-0.67.94-1.22,1.64-2.07,1.66h-0.05a2.88,2.88,0,0,1-2.19-1.56Zm-1,5.2a2.83,2.83,0,0,0,1.85.82,2.14,2.14,0,0,0,1.83-.92l0.33,0.18c-0.68.94-1.22,1.65-2.07,1.66h-0.05a2.87,2.87,0,0,1-2.19-1.56ZM263.34,465a2.14,2.14,0,0,0,1.83-.92l0.33,0.18c-0.67.94-1.22,1.64-2.07,1.66h-0.05a2.88,2.88,0,0,1-2.19-1.56l0.3-.19A2.82,2.82,0,0,0,263.34,465Zm-5.83-16.51,0.3-.19a2.84,2.84,0,0,0,1.85.82,2.14,2.14,0,0,0,1.83-.92l0.33,0.18c-0.67.94-1.22,1.64-2.07,1.66H259.7A2.88,2.88,0,0,1,257.5,448.46Zm4.86,5.26c-0.67.94-1.22,1.64-2.07,1.66h-0.05a2.88,2.88,0,0,1-2.19-1.56l0.3-.19a2.84,2.84,0,0,0,1.85.82,2.14,2.14,0,0,0,1.83-.92Zm-4.87,5.12a2.83,2.83,0,0,0,1.85.82,2.13,2.13,0,0,0,1.83-.92l0.33,0.18c-0.68.94-1.22,1.65-2.06,1.66H259.4A2.88,2.88,0,0,1,257.2,459Zm-1.21-5.3,0.33,0.18c-0.68.94-1.22,1.64-2.07,1.66H254.5a2.88,2.88,0,0,1-2.19-1.56l0.29-.19a2.85,2.85,0,0,0,1.85.82A2.14,2.14,0,0,0,256.28,453.54Zm-5.43-5.26a2.83,2.83,0,0,0,1.85.82,2.14,2.14,0,0,0,1.83-.92l0.33,0.18c-0.67.94-1.22,1.64-2.07,1.66h-0.05a2.87,2.87,0,0,1-2.19-1.56ZM249.29,455h-0.05a2.87,2.87,0,0,1-2.19-1.56l0.3-.19a2.83,2.83,0,0,0,1.85.82,2.14,2.14,0,0,0,1.83-.92l0.34,0.18C250.68,454.3,250.13,455,249.29,455Zm3.89,5.3h-0.05a2.88,2.88,0,0,1-2.2-1.56l0.3-.18a2.82,2.82,0,0,0,1.85.82,2.14,2.14,0,0,0,1.83-.92l0.34,0.18C254.57,459.6,254,460.31,253.18,460.33Zm3.93,5.56h-0.05a2.89,2.89,0,0,1-2.2-1.56l0.3-.19A2.83,2.83,0,0,0,257,465a2.14,2.14,0,0,0,1.83-.92l0.33,0.18C258.5,465.17,258,465.87,257.11,465.89Zm3.63,5.74a2.88,2.88,0,0,1-2.19-1.56l0.3-.18a2.83,2.83,0,0,0,1.85.82,2.14,2.14,0,0,0,1.83-.92l0.33,0.18c-0.67.94-1.22,1.64-2.07,1.66h-0.05Zm2.69,5.83h-0.05a2.87,2.87,0,0,1-2.19-1.56l0.3-.19a2.82,2.82,0,0,0,1.85.82,2.14,2.14,0,0,0,1.83-.92l0.33,0.18C264.83,476.73,264.28,477.44,263.44,477.46Zm2.52-5.83H265.9a2.89,2.89,0,0,1-2.2-1.56l0.3-.18a2.83,2.83,0,0,0,1.85.82,2.14,2.14,0,0,0,1.83-.92L268,470C267.34,470.91,266.8,471.61,266,471.63Zm4.17-5.74h-0.05a2.88,2.88,0,0,1-2.19-1.56l0.3-.19A2.82,2.82,0,0,0,270,465a2.14,2.14,0,0,0,1.83-.92l0.33,0.18C271.51,465.17,271,465.87,270.12,465.89Zm3.17-5.31h-0.05A2.88,2.88,0,0,1,271,459l0.3-.19a2.83,2.83,0,0,0,1.85.82,2.14,2.14,0,0,0,1.83-.92l0.33,0.18C274.68,459.85,274.14,460.56,273.29,460.58Zm1.75-7.11,0.3-.19a2.81,2.81,0,0,0,1.85.82,2.14,2.14,0,0,0,1.83-.92l0.33,0.18c-0.67.94-1.22,1.64-2.07,1.66h-0.05A2.88,2.88,0,0,1,275,453.47Z" transform="translate(-246.04 -436.84)" style="fill:#f5f5f5"/><path d="M262.57,448.79s2.23-7.95-2-10.41" transform="translate(-246.04 -436.84)" style="fill:#f5f5f5"/><path d="M263.16,442.22a4.94,4.94,0,0,1,.93-3.08,5.37,5.37,0,0,1,2.25-1.83,5.21,5.21,0,0,1,3.06-.38,3.65,3.65,0,0,1,2.74,2c-1,.76-1.61,1.31-2.18,1.76a7,7,0,0,1-1.69,1,7.6,7.6,0,0,1-2.1.57A10.62,10.62,0,0,1,263.16,442.22Z" transform="translate(-246.04 -436.84)" style="fill:#f5f5f5"/><path d="M262.93,443.06a10.64,10.64,0,0,1-2.84.29,10.24,10.24,0,0,1-2.19-.31,10.74,10.74,0,0,1-1.92-.69c-0.66-.3-1.34-0.66-2.44-1.11a3.61,3.61,0,0,1,2.39-2.13,5.43,5.43,0,0,1,3-.06,5.77,5.77,0,0,1,2.49,1.35A4.92,4.92,0,0,1,262.93,443.06Z" transform="translate(-246.04 -436.84)" style="fill:#f5f5f5"/></svg>