<svg id="Layer_1" data-name="Layer 1" xmlns="http://www.w3.org/2000/svg" viewBox="0 0 26.56 42.52"><title>meat</title><path d="M534.49,821.75c0-6.3-6-11.42-13.28-11.42s-13.28,5.12-13.28,11.42c0,6,1.83,21.36,11.69,22.85v3.71a2.29,2.29,0,1,0,0,4.54,2.8,2.8,0,0,1,3.17,0,2.29,2.29,0,1,0,0-4.54v-3.71C532.22,843,534.49,827.73,534.49,821.75Zm-23.82-2.65c0-3.87,4.83-7.14,10.54-7.14s10.54,3.27,10.54,7.14-4.82,7.14-10.54,7.14S510.67,823,510.67,819.11Z" transform="translate(-507.93 -810.33)" style="fill:#f5f5f5"/><ellipse cx="13.28" cy="8.53" rx="5.23" ry="3.08" style="fill:#f5f5f5"/></svg>