<svg id="Layer_1" data-name="Layer 1" xmlns="http://www.w3.org/2000/svg" viewBox="0 0 40.17 45.29"><title>menu</title><path d="M397.45,1713.91a4.15,4.15,0,0,0,0-.48,3.21,3.21,0,1,0-6.34,0c0,0.12,0,.25,0,0.37a20.09,20.09,0,0,0-17.28,19.89H414A20.09,20.09,0,0,0,397.45,1713.91Z" transform="translate(-373.87 -1692.8)" style="fill:#f5f5f5"/><rect y="42.83" width="40.17" height="2.47" style="fill:#f5f5f5"/><path d="M384.43,1709a2.3,2.3,0,0,0,1,.64,2.7,2.7,0,0,0,1.11.11,2.64,2.64,0,0,1-1.56-1.15,2.15,2.15,0,0,1,0-1.71,8.63,8.63,0,0,1,.9-1.74c0.36-.56.77-1.12,1.2-1.66a14.87,14.87,0,0,0,1.23-1.84,7.4,7.4,0,0,0,.82-2.15,3.5,3.5,0,0,0,0-1.23,2.29,2.29,0,0,0-.53-1.16,2.26,2.26,0,0,0-1-.64,2.73,2.73,0,0,0-1.11-.11,2.63,2.63,0,0,1,1.56,1.16,2.14,2.14,0,0,1,0,1.71,8.51,8.51,0,0,1-.9,1.74c-0.36.57-.77,1.12-1.2,1.66a14.79,14.79,0,0,0-1.23,1.84,7.31,7.31,0,0,0-.82,2.15,3.47,3.47,0,0,0,0,1.23A2.36,2.36,0,0,0,384.43,1709Z" transform="translate(-373.87 -1692.8)" style="fill:#f5f5f5"/><path d="M391.83,1705.45a2.28,2.28,0,0,0,1,.64,2.73,2.73,0,0,0,1.11.12,2.64,2.64,0,0,1-1.56-1.15,2.14,2.14,0,0,1,0-1.71,8.37,8.37,0,0,1,.9-1.74c0.37-.57.77-1.12,1.2-1.66a14.73,14.73,0,0,0,1.23-1.84,7.43,7.43,0,0,0,.82-2.15,3.5,3.5,0,0,0,0-1.23,2.32,2.32,0,0,0-.53-1.16,2.28,2.28,0,0,0-1-.64,2.77,2.77,0,0,0-1.11-.11,2.63,2.63,0,0,1,1.56,1.15,2.15,2.15,0,0,1,0,1.71,8.54,8.54,0,0,1-.9,1.74c-0.36.57-.77,1.12-1.19,1.66a14.71,14.71,0,0,0-1.23,1.84,7.43,7.43,0,0,0-.82,2.14,3.57,3.57,0,0,0,0,1.22A2.33,2.33,0,0,0,391.83,1705.45Z" transform="translate(-373.87 -1692.8)" style="fill:#f5f5f5"/><path d="M399.43,1709a2.27,2.27,0,0,0,1,.64,2.69,2.69,0,0,0,1.1.11,2.65,2.65,0,0,1-1.56-1.15,2.15,2.15,0,0,1,0-1.71,8.73,8.73,0,0,1,.9-1.74c0.37-.56.77-1.12,1.2-1.66a14.23,14.23,0,0,0,1.23-1.84,7.29,7.29,0,0,0,.83-2.15,3.47,3.47,0,0,0,0-1.23,2.36,2.36,0,0,0-.52-1.16,2.27,2.27,0,0,0-1-.64,2.74,2.74,0,0,0-1.11-.11,2.6,2.6,0,0,1,1.56,1.16,2.13,2.13,0,0,1,0,1.71,8.42,8.42,0,0,1-.9,1.74c-0.37.57-.77,1.12-1.19,1.66a14,14,0,0,0-1.23,1.84,7.29,7.29,0,0,0-.83,2.15,3.47,3.47,0,0,0,0,1.23A2.29,2.29,0,0,0,399.43,1709Z" transform="translate(-373.87 -1692.8)" style="fill:#f5f5f5"/></svg>