<svg id="Layer_1" data-name="Layer 1" xmlns="http://www.w3.org/2000/svg" viewBox="0 0 39.32 39.32"><title>watermelon</title><path d="M590.49,437l-1.44,1.44a21,21,0,0,1-29.71,29.71l-1.44,1.44A23,23,0,1,0,590.49,437Z" transform="translate(-557.91 -436.98)" style="fill:#f5f5f5"/><path d="M587.9,467a19.18,19.18,0,0,0,0-27.12L560.78,467A19.17,19.17,0,0,0,587.9,467Zm0.25-21.18a0.82,0.82,0,1,1-1.38.61A2.24,2.24,0,0,1,588.15,445.8Zm-4.36,12.34a1.86,1.86,0,1,1-.57,1.39A2.24,2.24,0,0,1,583.78,458.13Zm2.38-4.28a1.86,1.86,0,0,1-2.73-.38A1.86,1.86,0,0,1,586.16,453.86Zm-4.74,7.63a1.86,1.86,0,1,1-1.51,0A2.23,2.23,0,0,1,581.42,461.49Zm-2.47-5.36a1.86,1.86,0,1,1-.61,1.38A2.23,2.23,0,0,1,578.95,456.13Zm0.73-4.54a1.86,1.86,0,1,1,.66,1.35A2.24,2.24,0,0,1,579.68,451.59Zm-5.61,5.17a1.87,1.87,0,1,1-.61,1.38A2.24,2.24,0,0,1,574.07,456.76Zm0.35,6.17a0.82,0.82,0,1,1-.7,1A0.82,0.82,0,1,1,574.42,462.93Zm-5.87,3.72a0.82,0.82,0,1,1,.77-0.94A2.25,2.25,0,0,1,570,467,2.22,2.22,0,0,1,568.56,466.65Z" transform="translate(-557.91 -436.98)" style="fill:#f5f5f5"/></svg>